<svg width="52" height="52" viewBox="0 0 52 52" fill="none" xmlns="http://www.w3.org/2000/svg">
<circle cx="26" cy="26" r="26" fill="#B1EAFF"/>
<path d="M26 14.0039C25.4752 14.0039 24.9556 14.1073 24.4708 14.3081C23.986 14.5089 23.5455 14.8032 23.1744 15.1743C22.8033 15.5454 22.509 15.9859 22.3082 16.4707C22.1074 16.9555 22.004 17.4751 22.004 17.9999C22.004 18.5247 22.1074 19.0443 22.3082 19.5291C22.509 20.0139 22.8033 20.4544 23.1744 20.8255C23.5455 21.1966 23.986 21.4909 24.4708 21.6917C24.9556 21.8925 25.4752 21.9959 26 21.9959C27.0598 21.9959 28.0762 21.5749 28.8256 20.8255C29.575 20.0761 29.996 19.0597 29.996 17.9999C29.996 16.9401 29.575 15.9237 28.8256 15.1743C28.0762 14.4249 27.0598 14.0039 26 14.0039ZM35 15.9999C34.2044 15.9999 33.4413 16.316 32.8787 16.8786C32.3161 17.4412 32 18.2043 32 18.9999C32 19.7956 32.3161 20.5586 32.8787 21.1212C33.4413 21.6838 34.2044 21.9999 35 21.9999C35.7956 21.9999 36.5587 21.6838 37.1213 21.1212C37.6839 20.5586 38 19.7956 38 18.9999C38 18.2043 37.6839 17.4412 37.1213 16.8786C36.5587 16.316 35.7956 15.9999 35 15.9999ZM17 15.9999C16.2044 15.9999 15.4413 16.316 14.8787 16.8786C14.3161 17.4412 14 18.2043 14 18.9999C14 19.7956 14.3161 20.5586 14.8787 21.1212C15.4413 21.6838 16.2044 21.9999 17 21.9999C17.7957 21.9999 18.5587 21.6838 19.1213 21.1212C19.6839 20.5586 20 19.7956 20 18.9999C20 18.2043 19.6839 17.4412 19.1213 16.8786C18.5587 16.316 17.7957 15.9999 17 15.9999ZM20 25.9859C20.0037 25.4579 20.216 24.9528 20.5907 24.5807C20.9654 24.2087 21.472 23.9999 22 23.9999H30C30.5304 23.9999 31.0391 24.2106 31.4142 24.5857C31.7893 24.9608 32 25.4695 32 25.9999V31.9999C31.9999 32.6293 31.9013 33.2549 31.708 33.8539C31.2651 35.2113 30.3529 36.3664 29.135 37.1117C27.9172 37.857 26.4735 38.1438 25.0633 37.9205C23.653 37.6971 22.3686 36.9784 21.4406 35.8933C20.5126 34.8081 20.0018 33.4277 20 31.9999V25.9859ZM18 25.9999C18 25.2699 18.194 24.5879 18.536 23.9999H14C13.4696 23.9999 12.9609 24.2106 12.5858 24.5857C12.2107 24.9608 12 25.4695 12 25.9999V30.9999C11.9997 31.8185 12.2005 32.6247 12.5845 33.3476C12.9686 34.0705 13.5244 34.688 14.2029 35.146C14.8814 35.6039 15.662 35.8883 16.4761 35.974C17.2902 36.0598 18.1129 35.9444 18.872 35.6379C18.2964 34.5111 17.9974 33.2633 18 31.9979V25.9999ZM34 25.9999V31.9999C34 33.3099 33.686 34.5459 33.128 35.6379C33.8871 35.9444 34.7098 36.0598 35.5239 35.974C36.338 35.8883 37.1186 35.6039 37.7971 35.146C38.4756 34.688 39.0314 34.0705 39.4155 33.3476C39.7995 32.6247 40.0003 31.8185 40 30.9999V25.9999C40 25.4695 39.7893 24.9608 39.4142 24.5857C39.0391 24.2106 38.5304 23.9999 38 23.9999H33.464C33.804 24.5879 34 25.2699 34 25.9999Z" fill="#27B9EA"/>
</svg>
