<svg width="52" height="52" viewBox="0 0 52 52" fill="none" xmlns="http://www.w3.org/2000/svg">
<circle cx="26" cy="26" r="26" fill="#B1EAFF"/>
<path d="M18.9058 14H34.2851L33.7079 18.7762C33.5025 20.4756 33.1103 22.146 32.5385 23.7562L32.2245 24.6404C31.3664 27.0568 29.1142 28.6667 26.5917 28.6667C24.0728 28.6667 21.8231 27.0614 20.9623 24.65L20.6534 23.7847C20.0719 22.1558 19.675 20.4645 19.4702 18.7439L18.9058 14Z" fill="#27B9EA"/>
<path fill-rule="evenodd" clip-rule="evenodd" d="M15.0356 18.434C14.7772 16.9612 15.9684 15.8333 17.2643 15.8333H20.4737V17.6389H17.2643C17.0943 17.6389 16.9557 17.7106 16.8713 17.804C16.7924 17.8914 16.7592 17.9955 16.7804 18.1164C17.0369 19.5789 17.627 21.2907 18.7069 22.6526C19.7667 23.9891 21.3107 25.0102 23.5776 25.1403L23.4779 26.943C20.6628 26.7814 18.6708 25.4804 17.3281 23.7872C16.0056 22.1193 15.3267 20.0938 15.0356 18.434Z" fill="#27B9EA"/>
<path fill-rule="evenodd" clip-rule="evenodd" d="M37.9644 18.434C38.2228 16.9612 37.0316 15.8333 35.7357 15.8333H32.5263V17.6389H35.7357C35.9057 17.6389 36.0443 17.7106 36.1287 17.804C36.2076 17.8914 36.2408 17.9955 36.2196 18.1164C35.9631 19.5789 35.373 21.2907 34.2931 22.6526C33.2333 23.9891 31.6893 25.0102 29.4224 25.1403L29.5221 26.943C32.3372 26.7814 34.3292 25.4804 35.6719 23.7872C36.9944 22.1193 37.6733 20.0938 37.9644 18.434Z" fill="#27B9EA"/>
<path d="M30.3691 28.8609C30.1702 29.6459 29.4751 30.1944 28.6792 30.1944H24.5389C23.743 30.1944 23.0479 29.6459 22.8491 28.8609L22.3143 26.75C25.0397 28.0295 28.1784 28.0295 30.9038 26.75L30.3691 28.8609Z" fill="#27B9EA"/>
<path d="M25.1229 29.3889H28.0952V35.5556H25.1229V29.3889Z" fill="#27B9EA"/>
<path d="M23.4868 36.0833C23.4868 35.0555 24.3048 34.2222 25.3138 34.2222H27.877C28.886 34.2222 29.704 35.0555 29.704 36.0833H23.4868Z" fill="#27B9EA"/>
<path d="M21.9053 39C21.9053 37.0977 23.4191 35.5556 25.2865 35.5556H27.9043C29.7717 35.5556 31.2856 37.0977 31.2856 39H21.9053Z" fill="#27B9EA"/>
</svg>
