<svg width="70" height="70" viewBox="0 0 70 70" fill="none" xmlns="http://www.w3.org/2000/svg">
<circle cx="35" cy="35" r="35" fill="#EEF1F6"/>
<rect x="17" y="36" width="5" height="14" rx="1" stroke="#5D7185" stroke-width="2"/>
<path d="M22.5 39C24.5 37.8333 31.4 36.5 37 40.5H43.5C44.7921 40.5 46.0842 42.7261 44.5 43.9823M35.5 45C39.5 45.4 42.5 44.8334 43.5 44.5C43.9158 44.3614 44.2451 44.1844 44.5 43.9823M22.5 47L36 51.5C36.6667 51.6667 38.2 52 39 52C39.5 52 40.7 51.9 41.5 51.5L51.5 45.5C54 44 52.5 40.2865 48.5 42L44.5 43.9823" stroke="#5D7185" stroke-width="2"/>
<path d="M35 35C35 23.5 37 17 52.5 17C52.5 32.5 45.5 35 35 35Z" stroke="#5D7185" stroke-width="2"/>
<path d="M35 35L45 24.5" stroke="#5D7185" stroke-width="2"/>
</svg>
