<svg width="70" height="70" viewBox="0 0 70 70" fill="none" xmlns="http://www.w3.org/2000/svg">
<circle cx="35" cy="35" r="35" fill="#EEF1F6"/>
<path d="M48.1696 29.7649C48.1696 36.802 42.3837 42.5297 35.218 42.5297C28.0522 42.5297 22.2664 36.802 22.2664 29.7649C22.2664 22.7277 28.0522 17 35.218 17C42.3837 17 48.1696 22.7277 48.1696 29.7649Z" stroke="#5D7185" stroke-width="2"/>
<path d="M42.0658 29.7648C42.0658 33.4761 39.0126 36.5076 35.218 36.5076C31.4233 36.5076 28.3702 33.4761 28.3702 29.7648C28.3702 26.0536 31.4233 23.0221 35.218 23.0221C39.0126 23.0221 42.0658 26.0536 42.0658 29.7648Z" stroke="#5D7185" stroke-width="2"/>
<path d="M52.0359 49.1445C55.194 49.1445 49.5703 40.7148 46.5 37C43.5 40.5 39.6084 42.2652 38.0001 42.5403C42.5617 53.7673 44.1407 53.6848 45.018 52.4465L47.6497 49.1445H52.0359Z" stroke="#5D7185" stroke-width="2"/>
<path d="M17.9327 49.1445C14.7746 49.1445 20.9294 40.2148 23.9998 36.5C25.4998 39 30.3602 42.2652 31.9685 42.5403C27.4069 53.7673 25.8278 53.6848 24.9506 52.4465L22.3189 49.1445H17.9327Z" stroke="#5D7185" stroke-width="2"/>
</svg>
