<svg width="70" height="70" viewBox="0 0 70 70" fill="none" xmlns="http://www.w3.org/2000/svg">
<circle cx="35" cy="35" r="35" fill="#EEF1F6"/>
<path d="M43.73 53H50C48.86 52.0769 47.264 49.5846 50 47H23.2099C19.2199 47 18.6498 53 23.2099 53H33.4699" stroke="#5D7185" stroke-width="2"/>
<path d="M20 50L20 22.459C19.9999 20.6393 20.4615 17 24.6154 17L44.2308 17C48.2692 17 50 19.4262 50 22.459L50 47" stroke="#5D7185" stroke-width="2"/>
<path d="M34.8889 50V57L38.5 54L42.1111 57V50M34.8889 50H42.1111M34.8889 50H32M42.1111 50H45" stroke="#5D7185" stroke-width="2"/>
<path d="M25 21V43" stroke="#5D7185" stroke-width="2"/>
</svg>
