<svg width="70" height="70" viewBox="0 0 70 70" fill="none" xmlns="http://www.w3.org/2000/svg">
<circle cx="35" cy="35" r="35" fill="#EEF1F6"/>
<path d="M41 35C41 40.1602 40.2277 44.7878 39.0114 48.0893C38.4018 49.744 37.6997 51.0131 36.9707 51.8501C36.2396 52.6894 35.5707 53 35 53C34.4293 53 33.7604 52.6894 33.0293 51.8501C32.3003 51.0131 31.5982 49.744 30.9886 48.0893C29.7723 44.7878 29 40.1602 29 35C29 29.8398 29.7723 25.2122 30.9886 21.9107C31.5982 20.256 32.3003 18.9869 33.0293 18.1499C33.7604 17.3106 34.4293 17 35 17C35.5707 17 36.2396 17.3106 36.9707 18.1499C37.6997 18.9869 38.4018 20.256 39.0114 21.9107C40.2277 25.2122 41 29.8398 41 35Z" stroke="#5D7185" stroke-width="2"/>
<path d="M38.4413 30.0852C42.6683 33.0449 46.0161 36.3318 48.0228 39.2218C49.0286 40.6703 49.6655 41.9733 49.9329 43.0506C50.2011 44.1309 50.0719 44.8569 49.7446 45.3244C49.4172 45.7919 48.7791 46.1617 47.6723 46.2791C46.5685 46.3963 45.1262 46.2435 43.4211 45.7937C40.019 44.8965 35.7854 42.8748 31.5584 39.915C27.3314 36.9552 23.9836 33.6683 21.9768 30.7783C20.9711 29.3298 20.3342 28.0268 20.0667 26.9495C19.7985 25.8693 19.9277 25.1432 20.2551 24.6757C20.5824 24.2082 21.2205 23.8384 22.3274 23.721C23.4312 23.6039 24.8734 23.7567 26.5785 24.2064C29.9806 25.1037 34.2143 27.1254 38.4413 30.0852Z" stroke="#5D7185" stroke-width="2"/>
<path d="M38.4414 39.9148C34.2144 42.8746 29.9808 44.8963 26.5787 45.7936C24.8736 46.2433 23.4313 46.3961 22.3275 46.279C21.2207 46.1616 20.5826 45.7918 20.2552 45.3243C19.9279 44.8568 19.7987 44.1308 20.0669 43.0505C20.3343 41.9732 20.9712 40.6702 21.977 39.2217C23.9837 36.3317 27.3315 33.0448 31.5585 30.085C35.7855 27.1252 40.0192 25.1036 43.4213 24.2063C45.1264 23.7565 46.5686 23.6037 47.6724 23.7209C48.7793 23.8383 49.4174 24.2081 49.7447 24.6756C50.0721 25.1431 50.2013 25.8691 49.9331 26.9494C49.6656 28.0267 49.0287 29.3297 48.023 30.7782C46.0162 33.6682 42.6684 36.9551 38.4414 39.9148Z" stroke="#5D7185" stroke-width="2"/>
</svg>
