<?xml version="1.0" encoding="utf-8"?><svg viewBox="0 0 70 70" xmlns="http://www.w3.org/2000/svg" xmlns:xlink="http://www.w3.org/1999/xlink"><style>:root>svg{display:none}:root>svg:target{display:block}</style><svg fill="none" viewBox="0 0 70 70" id="benefits--icon-1" xmlns="http://www.w3.org/2000/svg"><circle cx="35" cy="35" r="35" fill="#EEF1F6"/><path d="M48.17 29.765c0 7.037-5.786 12.765-12.952 12.765s-12.952-5.728-12.952-12.765C22.266 22.728 28.052 17 35.218 17S48.17 22.728 48.17 29.765z" stroke="#5D7185" stroke-width="2"/><path d="M42.066 29.765c0 3.711-3.053 6.743-6.848 6.743s-6.848-3.032-6.848-6.743c0-3.711 3.053-6.743 6.848-6.743s6.848 3.032 6.848 6.743zm9.97 19.38c3.158 0-2.466-8.43-5.536-12.145-3 3.5-6.892 5.265-8.5 5.54 4.562 11.227 6.14 11.145 7.018 9.907l2.632-3.303h4.386zm-34.103 0c-3.158 0 2.996-8.93 6.067-12.645 1.5 2.5 6.36 5.765 7.968 6.04-4.561 11.227-6.14 11.145-7.017 9.907l-2.632-3.303h-4.386z" stroke="#5D7185" stroke-width="2"/></svg><svg fill="none" viewBox="0 0 70 70" id="benefits--icon-2" xmlns="http://www.w3.org/2000/svg"><circle cx="35" cy="35" r="35" fill="#EEF1F6"/><path d="m28.5 34.747 5.5 5.066 9-11.146m-23-7.094v17.734c0 9.12 9.5 12.666 12 13.68L34.5 54l2.5-1.013c2-1.014 13-3.547 13-13.68V21.573c-2.833 0-9.8-1.114-15-5.573-2.5 1.858-9 5.573-15 5.573z" stroke="#5D7185" stroke-width="2"/></svg><svg fill="none" viewBox="0 0 70 70" id="benefits--icon-3" xmlns="http://www.w3.org/2000/svg"><circle cx="35" cy="35" r="35" fill="#EEF1F6"/><rect x="17" y="36" width="5" height="14" rx="1" stroke="#5D7185" stroke-width="2"/><path d="M22.5 39c2-1.167 8.9-2.5 14.5 1.5h6.5c1.292 0 2.584 2.226 1 3.482M35.5 45c4 .4 7-.167 8-.5a3.248 3.248 0 0 0 1-.518M22.5 47 36 51.5c.667.167 2.2.5 3 .5.5 0 1.7-.1 2.5-.5l10-6c2.5-1.5 1-5.214-3-3.5l-4 1.982M35 35c0-11.5 2-18 17.5-18 0 15.5-7 18-17.5 18zm0 0 10-10.5" stroke="#5D7185" stroke-width="2"/></svg><svg fill="none" viewBox="0 0 70 70" id="benefits--icon-4" xmlns="http://www.w3.org/2000/svg"><circle cx="35" cy="35" r="35" fill="#EEF1F6"/><path d="M41 35c0 5.16-.772 9.788-1.989 13.09-.61 1.654-1.311 2.923-2.04 3.76C36.24 52.69 35.57 53 35 53c-.57 0-1.24-.31-1.97-1.15-.73-.837-1.432-2.106-2.041-3.76C29.772 44.787 29 40.16 29 35s.772-9.788 1.989-13.09c.61-1.654 1.311-2.923 2.04-3.76C33.76 17.31 34.43 17 35 17c.57 0 1.24.31 1.97 1.15.73.837 1.432 2.106 2.041 3.76C40.228 25.213 41 29.84 41 35z" stroke="#5D7185" stroke-width="2"/><path d="M38.441 30.085c4.227 2.96 7.575 6.247 9.582 9.137 1.006 1.448 1.642 2.751 1.91 3.829.268 1.08.139 1.806-.188 2.273-.328.468-.966.838-2.073.955-1.103.117-2.546-.036-4.25-.485-3.403-.897-7.637-2.92-11.864-5.879-4.227-2.96-7.574-6.247-9.581-9.137-1.006-1.448-1.643-2.751-1.91-3.828-.268-1.08-.14-1.807.188-2.274.327-.468.966-.838 2.072-.955 1.104-.117 2.546.036 4.251.485 3.403.898 7.636 2.92 11.863 5.88z" stroke="#5D7185" stroke-width="2"/><path d="M38.441 39.915c-4.227 2.96-8.46 4.981-11.862 5.879-1.705.45-3.148.602-4.252.485-1.106-.117-1.744-.487-2.072-.955-.327-.467-.456-1.193-.188-2.273.267-1.078.904-2.38 1.91-3.83 2.007-2.89 5.354-6.176 9.581-9.136 4.227-2.96 8.461-4.981 11.863-5.879 1.705-.45 3.148-.602 4.251-.485 1.107.117 1.745.487 2.073.955.327.467.456 1.193.188 2.273-.267 1.078-.904 2.38-1.91 3.83-2.007 2.89-5.355 6.176-9.582 9.136z" stroke="#5D7185" stroke-width="2"/></svg><svg fill="none" viewBox="0 0 70 70" id="benefits--icon-5" xmlns="http://www.w3.org/2000/svg"><circle cx="35" cy="35" r="35" fill="#EEF1F6"/><path d="M43.73 53H50c-1.14-.923-2.736-3.415 0-6H23.21c-3.99 0-4.56 6 0 6h10.26" stroke="#5D7185" stroke-width="2"/><path d="M20 50V22.459c0-1.82.462-5.459 4.615-5.459h19.616C48.269 17 50 19.426 50 22.459V47m-15.111 3v7l3.611-3 3.611 3v-7m-7.222 0h7.222m-7.222 0H32m10.111 0H45M25 21v22" stroke="#5D7185" stroke-width="2"/></svg><svg fill="none" viewBox="0 0 22 22" id="chevron-right" xmlns="http://www.w3.org/2000/svg"><path d="m8.25 16.5 5.5-5.5-5.5-5.5" stroke="#fff" stroke-width="2" stroke-linecap="round" stroke-linejoin="round"/></svg><svg fill="none" viewBox="0 0 52 52" id="hero--icon-1" xmlns="http://www.w3.org/2000/svg"><circle cx="26" cy="26" r="26" fill="#B1EAFF"/><path d="M26 14.004a3.996 3.996 0 1 0 0 7.992 3.996 3.996 0 0 0 0-7.992zM35 16a3 3 0 1 0 0 6 3 3 0 0 0 0-6zm-18 0a3 3 0 1 0 0 6 3 3 0 0 0 0-6zm3 9.986A2 2 0 0 1 22 24h8a2 2 0 0 1 2 2v6a6.04 6.04 0 0 1-.292 1.854A6.002 6.002 0 0 1 20 32v-6.014zM18 26c0-.73.194-1.412.536-2H14a2 2 0 0 0-2 2v5a5 5 0 0 0 6.872 4.638 7.966 7.966 0 0 1-.872-3.64V26zm16 0v6a7.97 7.97 0 0 1-.872 3.638A5 5 0 0 0 40 31v-5a2 2 0 0 0-2-2h-4.536c.34.588.536 1.27.536 2z" fill="#27B9EA"/></svg><svg fill="none" viewBox="0 0 52 52" id="hero--icon-2" xmlns="http://www.w3.org/2000/svg"><circle cx="26" cy="26" r="26" fill="#B1EAFF"/><path d="M18.906 14h15.38l-.578 4.776c-.206 1.7-.598 3.37-1.17 4.98l-.313.884c-.859 2.417-3.11 4.027-5.633 4.027-2.52 0-4.769-1.606-5.63-4.017l-.309-.865a23.124 23.124 0 0 1-1.183-5.041L18.906 14z" fill="#27B9EA"/><path fill-rule="evenodd" clip-rule="evenodd" d="M15.036 18.434c-.259-1.473.932-2.6 2.228-2.6h3.21v1.805h-3.21a.528.528 0 0 0-.393.165.354.354 0 0 0-.09.312c.256 1.463.846 3.175 1.926 4.537 1.06 1.336 2.604 2.357 4.87 2.487l-.1 1.803c-2.814-.162-4.806-1.463-6.149-3.156-1.322-1.668-2.001-3.693-2.292-5.353zm22.928 0c.259-1.473-.932-2.6-2.228-2.6h-3.21v1.805h3.21a.53.53 0 0 1 .393.165.354.354 0 0 1 .09.312c-.256 1.463-.846 3.175-1.926 4.537-1.06 1.336-2.604 2.357-4.87 2.487l.1 1.803c2.814-.162 4.806-1.463 6.149-3.156 1.322-1.668 2.001-3.693 2.292-5.353z" fill="#27B9EA"/><path d="M30.37 28.86a1.751 1.751 0 0 1-1.69 1.334h-4.141a1.751 1.751 0 0 1-1.69-1.333l-.535-2.111a10.09 10.09 0 0 0 8.59 0l-.535 2.11z" fill="#27B9EA"/><path d="M25.123 29.389h2.972v6.167h-2.972v-6.167z" fill="#27B9EA"/><path d="M23.487 36.083c0-1.027.818-1.86 1.827-1.86h2.563c1.009 0 1.827.833 1.827 1.86h-6.217z" fill="#27B9EA"/><path d="M21.905 39c0-1.902 1.514-3.444 3.381-3.444h2.618c1.868 0 3.382 1.542 3.382 3.444h-9.38z" fill="#27B9EA"/></svg><svg fill="none" viewBox="0 0 18 18" id="search" xmlns="http://www.w3.org/2000/svg"><path d="M8.25 14.25a6 6 0 1 0 0-12 6 6 0 0 0 0 12zm7.5 1.5-3.262-3.262" stroke="#667790" stroke-width="1.5" stroke-linecap="round" stroke-linejoin="round"/></svg></svg>